<svg width="1196" height="437" viewBox="0 0 1196 437" fill="none" xmlns="http://www.w3.org/2000/svg">
<g filter="url(#filter0_d_38:3)">
<path fill-rule="evenodd" clip-rule="evenodd" d="M196 137C202.627 137 208 131.627 208 125C208 118.373 202.627 113 196 113C189.373 113 184 118.373 184 125C184 131.627 189.373 137 196 137Z" fill="#4AF6CD"/>
</g>
<g filter="url(#filter1_d_38:3)">
<path fill-rule="evenodd" clip-rule="evenodd" d="M1149 348C1155.63 348 1161 342.627 1161 336C1161 329.373 1155.63 324 1149 324C1142.37 324 1137 329.373 1137 336C1137 342.627 1142.37 348 1149 348Z" fill="#4AF6CD"/>
</g>
<g filter="url(#filter2_d_38:3)">
<path fill-rule="evenodd" clip-rule="evenodd" d="M590 59C596.627 59 602 53.6274 602 47C602 40.3726 596.627 35 590 35C583.373 35 578 40.3726 578 47C578 53.6274 583.373 59 590 59Z" fill="#4AF6CD"/>
</g>
<g filter="url(#filter3_d_38:3)">
<path fill-rule="evenodd" clip-rule="evenodd" d="M858 242C864.627 242 870 236.627 870 230C870 223.373 864.627 218 858 218C851.373 218 846 223.373 846 230C846 236.627 851.373 242 858 242Z" fill="#4AF6CD"/>
</g>
<g filter="url(#filter4_d_38:3)">
<path fill-rule="evenodd" clip-rule="evenodd" d="M697 402C703.627 402 709 396.627 709 390C709 383.373 703.627 378 697 378C690.373 378 685 383.373 685 390C685 396.627 690.373 402 697 402Z" fill="#4AF6CD"/>
</g>
<g filter="url(#filter5_d_38:3)">
<path fill-rule="evenodd" clip-rule="evenodd" d="M473 348C479.627 348 485 342.627 485 336C485 329.373 479.627 324 473 324C466.373 324 461 329.373 461 336C461 342.627 466.373 348 473 348Z" fill="#4AF6CD"/>
</g>
<g filter="url(#filter6_d_38:3)">
<path fill-rule="evenodd" clip-rule="evenodd" d="M398 165C404.627 165 410 159.627 410 153C410 146.373 404.627 141 398 141C391.373 141 386 146.373 386 153C386 159.627 391.373 165 398 165Z" fill="#4AF6CD"/>
</g>
<g filter="url(#filter7_d_38:3)">
<path fill-rule="evenodd" clip-rule="evenodd" d="M47 177C53.6274 177 59 171.627 59 165C59 158.373 53.6274 153 47 153C40.3726 153 35 158.373 35 165C35 171.627 40.3726 177 47 177Z" fill="#4AF6CD"/>
</g>
<path fill-rule="evenodd" clip-rule="evenodd" d="M1137.5 335.5C1137.5 342.127 1142.87 347.5 1149.5 347.5C1156.13 347.5 1161.5 342.127 1161.5 335.5C1161.5 328.873 1149.5 314.5 1149.5 314.5C1149.5 314.5 1137.5 328.873 1137.5 335.5Z" fill="#4AF6CD"/>
<defs>
<filter id="filter0_d_38:3" x="149" y="78" width="94" height="94" filterUnits="userSpaceOnUse" color-interpolation-filters="sRGB">
<feFlood flood-opacity="0" result="BackgroundImageFix"/>
<feColorMatrix in="SourceAlpha" type="matrix" values="0 0 0 0 0 0 0 0 0 0 0 0 0 0 0 0 0 0 127 0" result="hardAlpha"/>
<feOffset/>
<feGaussianBlur stdDeviation="17.5"/>
<feColorMatrix type="matrix" values="0 0 0 0 0.289399 0 0 0 0 0.964817 0 0 0 0 0.803534 0 0 0 0.837777 0"/>
<feBlend mode="normal" in2="BackgroundImageFix" result="effect1_dropShadow_38:3"/>
<feBlend mode="normal" in="SourceGraphic" in2="effect1_dropShadow_38:3" result="shape"/>
</filter>
<filter id="filter1_d_38:3" x="1102" y="289" width="94" height="94" filterUnits="userSpaceOnUse" color-interpolation-filters="sRGB">
<feFlood flood-opacity="0" result="BackgroundImageFix"/>
<feColorMatrix in="SourceAlpha" type="matrix" values="0 0 0 0 0 0 0 0 0 0 0 0 0 0 0 0 0 0 127 0" result="hardAlpha"/>
<feOffset/>
<feGaussianBlur stdDeviation="17.5"/>
<feColorMatrix type="matrix" values="0 0 0 0 0.289399 0 0 0 0 0.964817 0 0 0 0 0.803534 0 0 0 0.837777 0"/>
<feBlend mode="normal" in2="BackgroundImageFix" result="effect1_dropShadow_38:3"/>
<feBlend mode="normal" in="SourceGraphic" in2="effect1_dropShadow_38:3" result="shape"/>
</filter>
<filter id="filter2_d_38:3" x="543" y="0" width="94" height="94" filterUnits="userSpaceOnUse" color-interpolation-filters="sRGB">
<feFlood flood-opacity="0" result="BackgroundImageFix"/>
<feColorMatrix in="SourceAlpha" type="matrix" values="0 0 0 0 0 0 0 0 0 0 0 0 0 0 0 0 0 0 127 0" result="hardAlpha"/>
<feOffset/>
<feGaussianBlur stdDeviation="17.5"/>
<feColorMatrix type="matrix" values="0 0 0 0 0.289399 0 0 0 0 0.964817 0 0 0 0 0.803534 0 0 0 0.837777 0"/>
<feBlend mode="normal" in2="BackgroundImageFix" result="effect1_dropShadow_38:3"/>
<feBlend mode="normal" in="SourceGraphic" in2="effect1_dropShadow_38:3" result="shape"/>
</filter>
<filter id="filter3_d_38:3" x="811" y="183" width="94" height="94" filterUnits="userSpaceOnUse" color-interpolation-filters="sRGB">
<feFlood flood-opacity="0" result="BackgroundImageFix"/>
<feColorMatrix in="SourceAlpha" type="matrix" values="0 0 0 0 0 0 0 0 0 0 0 0 0 0 0 0 0 0 127 0" result="hardAlpha"/>
<feOffset/>
<feGaussianBlur stdDeviation="17.5"/>
<feColorMatrix type="matrix" values="0 0 0 0 0.289399 0 0 0 0 0.964817 0 0 0 0 0.803534 0 0 0 0.837777 0"/>
<feBlend mode="normal" in2="BackgroundImageFix" result="effect1_dropShadow_38:3"/>
<feBlend mode="normal" in="SourceGraphic" in2="effect1_dropShadow_38:3" result="shape"/>
</filter>
<filter id="filter4_d_38:3" x="650" y="343" width="94" height="94" filterUnits="userSpaceOnUse" color-interpolation-filters="sRGB">
<feFlood flood-opacity="0" result="BackgroundImageFix"/>
<feColorMatrix in="SourceAlpha" type="matrix" values="0 0 0 0 0 0 0 0 0 0 0 0 0 0 0 0 0 0 127 0" result="hardAlpha"/>
<feOffset/>
<feGaussianBlur stdDeviation="17.5"/>
<feColorMatrix type="matrix" values="0 0 0 0 0.289399 0 0 0 0 0.964817 0 0 0 0 0.803534 0 0 0 0.837777 0"/>
<feBlend mode="normal" in2="BackgroundImageFix" result="effect1_dropShadow_38:3"/>
<feBlend mode="normal" in="SourceGraphic" in2="effect1_dropShadow_38:3" result="shape"/>
</filter>
<filter id="filter5_d_38:3" x="426" y="289" width="94" height="94" filterUnits="userSpaceOnUse" color-interpolation-filters="sRGB">
<feFlood flood-opacity="0" result="BackgroundImageFix"/>
<feColorMatrix in="SourceAlpha" type="matrix" values="0 0 0 0 0 0 0 0 0 0 0 0 0 0 0 0 0 0 127 0" result="hardAlpha"/>
<feOffset/>
<feGaussianBlur stdDeviation="17.5"/>
<feColorMatrix type="matrix" values="0 0 0 0 0.289399 0 0 0 0 0.964817 0 0 0 0 0.803534 0 0 0 0.837777 0"/>
<feBlend mode="normal" in2="BackgroundImageFix" result="effect1_dropShadow_38:3"/>
<feBlend mode="normal" in="SourceGraphic" in2="effect1_dropShadow_38:3" result="shape"/>
</filter>
<filter id="filter6_d_38:3" x="351" y="106" width="94" height="94" filterUnits="userSpaceOnUse" color-interpolation-filters="sRGB">
<feFlood flood-opacity="0" result="BackgroundImageFix"/>
<feColorMatrix in="SourceAlpha" type="matrix" values="0 0 0 0 0 0 0 0 0 0 0 0 0 0 0 0 0 0 127 0" result="hardAlpha"/>
<feOffset/>
<feGaussianBlur stdDeviation="17.5"/>
<feColorMatrix type="matrix" values="0 0 0 0 0.289399 0 0 0 0 0.964817 0 0 0 0 0.803534 0 0 0 0.837777 0"/>
<feBlend mode="normal" in2="BackgroundImageFix" result="effect1_dropShadow_38:3"/>
<feBlend mode="normal" in="SourceGraphic" in2="effect1_dropShadow_38:3" result="shape"/>
</filter>
<filter id="filter7_d_38:3" x="0" y="118" width="94" height="94" filterUnits="userSpaceOnUse" color-interpolation-filters="sRGB">
<feFlood flood-opacity="0" result="BackgroundImageFix"/>
<feColorMatrix in="SourceAlpha" type="matrix" values="0 0 0 0 0 0 0 0 0 0 0 0 0 0 0 0 0 0 127 0" result="hardAlpha"/>
<feOffset/>
<feGaussianBlur stdDeviation="17.5"/>
<feColorMatrix type="matrix" values="0 0 0 0 0.289399 0 0 0 0 0.964817 0 0 0 0 0.803534 0 0 0 0.837777 0"/>
<feBlend mode="normal" in2="BackgroundImageFix" result="effect1_dropShadow_38:3"/>
<feBlend mode="normal" in="SourceGraphic" in2="effect1_dropShadow_38:3" result="shape"/>
</filter>
</defs>
</svg>
