<svg width="50" height="32" viewBox="0 0 50 32" fill="none" xmlns="http://www.w3.org/2000/svg">
<path fill-rule="evenodd" clip-rule="evenodd" d="M48.75 21.2761V24.0226L48.7496 24.0227C49.3199 24.1387 49.7496 24.6393 49.7496 25.2346V26.2222C49.7496 26.8214 49.3199 27.32 48.7496 27.436V27.4611H42.1851C41.8218 29.7012 39.8628 31.4194 37.4995 31.4194C35.1362 31.4194 33.1772 29.7012 32.8159 27.4611H15.4349C15.0716 29.7012 13.1127 31.4194 10.7494 31.4194C8.38606 31.4194 6.42514 29.6992 6.06381 27.4611H2.24936L1.50131 27.463C0.809909 27.463 0.249359 26.9064 0.249359 26.2241V25.2365C0.249359 24.5523 0.811859 23.9976 1.50131 23.9976H2.24936V12.8667C2.24936 9.45534 5.05411 6.67986 8.50136 6.67986L14.2709 6.67599V4.70261C8.18536 4.12861 3.02891 3.0559 1.46836 1.5116C1.23594 1.28355 1.18125 0.931773 1.33359 0.643789C1.48594 0.357735 1.80627 0.199249 2.13049 0.257233C7.10699 1.13857 14.8455 1.25646 21.7555 1.25646C23.2242 1.25646 24.6676 1.2526 26.0543 1.2468C26.407 1.24574 26.7559 1.24454 27.1008 1.24335L27.1009 1.24335L27.101 1.24335L27.1011 1.24335L27.1014 1.24335L27.1016 1.24335L27.1017 1.24334C28.0154 1.24019 28.9005 1.23714 29.7496 1.23714L36.1871 1.23907H36.1891C40.5466 1.23907 43.2301 1.21008 46.7106 1.04193C47.0543 1.02837 47.3727 1.24871 47.4684 1.57922C47.5641 1.90974 47.4176 2.26345 47.1149 2.4316C46.6129 2.70992 45.9879 2.9689 45.2477 3.20857V4.71036C45.2477 5.37912 44.8883 5.957 44.2848 6.25851C44.0289 6.38608 43.7594 6.44986 43.4918 6.44986C43.1286 6.44986 42.7672 6.33389 42.4547 6.10389L40.0348 4.32769C36.9528 4.77224 33.1365 5.05443 28.7498 5.15493V6.68181L33.9978 6.67988C37.3418 6.67988 40.4258 7.78737 42.9023 9.64863L43.1074 9.80711C45.1797 11.4208 46.8047 13.572 47.7676 16.0479L47.7734 16.0595L47.7871 16.0924C47.8007 16.1306 47.8154 16.1678 47.83 16.2047L47.8301 16.2049L47.8301 16.2049L47.8302 16.2051L47.8302 16.2052L47.8302 16.2053C47.8429 16.2372 47.8554 16.269 47.8672 16.3011L48.166 17.0684H48.123C48.5293 18.402 48.75 19.8149 48.75 21.2761ZM35.0001 15.5859H45.9316H45.9319C45.092 13.8715 43.8811 12.3504 42.3791 11.1328H35.0001C34.8654 11.1328 34.7501 11.2468 34.7501 11.3802V15.3385C34.7501 15.4719 34.8654 15.5859 35.0001 15.5859ZM43.75 4.71037C43.75 4.81281 43.7051 4.88625 43.6113 4.93264C43.5176 4.97903 43.4336 4.97129 43.3496 4.90945L42.0918 3.9875C42.6816 3.8754 43.2344 3.75557 43.75 3.62993L43.75 4.71037ZM25.0908 2.73601L25.0906 2.73601C24.0042 2.73935 22.8892 2.74278 21.758 2.74278L21.7584 2.74274C17.3189 2.74274 12.5376 2.69249 8.33644 2.42383C12.3714 3.17765 18.1744 3.71108 25.0004 3.71108C31.2734 3.71108 36.76 3.34776 40.7424 2.70799C39.385 2.72345 37.9182 2.72925 36.1916 2.72925H36.1897L29.7502 2.72345C28.5822 2.72345 27.3459 2.72732 26.0607 2.73312L25.0908 2.73601ZM15.7715 4.836C18.7812 5.07373 21.957 5.19549 25 5.19549C25.7636 5.19549 26.5136 5.18969 27.25 5.18003V6.67984H15.7715V4.836ZM7.49999 26.7191C7.49999 28.4934 8.95704 29.9353 10.75 29.9353C12.5429 29.9353 14 28.4934 14 26.7191C14 24.9449 12.5429 23.503 10.75 23.503C8.95704 23.503 7.49999 24.9449 7.49999 26.7191ZM37.5 29.9353C35.707 29.9353 34.25 28.4934 34.25 26.7191C34.25 24.9449 35.707 23.503 37.5 23.503C39.2929 23.503 40.75 24.9449 40.75 26.7191C40.75 28.4934 39.2929 29.9353 37.5 29.9353ZM37.5 22.0186C39.8633 22.0186 41.8242 23.7369 42.1855 25.977H48.2499V25.4822H43.7499V23.9978H47.2499V21.2784C47.2499 19.8056 47 18.3927 46.5468 17.0707H34.9998C34.035 17.0707 33.2498 16.2937 33.2498 15.3389V11.3806C33.2498 10.4258 34.035 9.64884 34.9998 9.64884H40.1113C38.281 8.70368 36.2009 8.16446 33.9978 8.16446H8.50183C5.88073 8.16446 3.74989 10.275 3.74989 12.8669V15.5863H11.2849V17.0707H3.74989V23.9978H4.74989V25.4822H1.74989V25.977H6.06433C6.42763 23.7369 8.38659 22.0186 10.7499 22.0186C13.1132 22.0186 15.0741 23.7369 15.4354 25.977H32.8144C33.1777 23.7369 35.1367 22.0186 37.5 22.0186Z" fill="white"/>
<path d="M48.75 24.0226L48.7918 24.1666L48.9 24.1352V24.0226H48.75ZM48.7496 24.0227L48.7078 23.8786L48.7197 24.1697L48.7496 24.0227ZM48.7496 27.436L48.7197 27.289L48.5996 27.3134V27.436H48.7496ZM48.7496 27.4611V27.6111H48.8996V27.4611H48.7496ZM42.1851 27.4611V27.3111H42.0574L42.037 27.4371L42.1851 27.4611ZM32.8159 27.4611L32.964 27.4372L32.9437 27.3111H32.8159V27.4611ZM15.4349 27.4611V27.3111H15.3073L15.2868 27.4371L15.4349 27.4611ZM6.06381 27.4611L6.21189 27.4372L6.19153 27.3111H6.06381V27.4611ZM2.24936 27.4611L2.24936 27.3111L2.24897 27.3111L2.24936 27.4611ZM1.50131 27.463L1.50131 27.613L1.5017 27.613L1.50131 27.463ZM2.24936 23.9976V24.1476H2.39936V23.9976H2.24936ZM8.50136 6.67986L8.50136 6.82986L8.50146 6.82986L8.50136 6.67986ZM14.2709 6.67599L14.271 6.82599L14.4209 6.82589V6.67599H14.2709ZM14.2709 4.70261H14.4209V4.5661L14.2849 4.55328L14.2709 4.70261ZM1.46836 1.5116L1.57387 1.40498L1.57341 1.40454L1.46836 1.5116ZM1.33359 0.643789L1.2012 0.573277L1.201 0.573648L1.33359 0.643789ZM2.13049 0.257233L2.10409 0.404891L2.10434 0.404935L2.13049 0.257233ZM26.0543 1.2468L26.0539 1.0968L26.0537 1.0968L26.0543 1.2468ZM27.1008 1.24335L27.1013 1.39335L27.1013 1.39335L27.1008 1.24335ZM27.1011 1.24335L27.1005 1.09335L27.1005 1.09335L27.1011 1.24335ZM27.1014 1.24335L27.1009 1.09335L27.1009 1.09335L27.1014 1.24335ZM27.1016 1.24335L27.1021 1.39334L27.1022 1.39334L27.1016 1.24335ZM27.1017 1.24334L27.1012 1.09335L27.1011 1.09335L27.1017 1.24334ZM29.7496 1.23714L29.7497 1.08714H29.7496V1.23714ZM36.1871 1.23907L36.1871 1.38907H36.1871V1.23907ZM46.7106 1.04193L46.7047 0.892036L46.7034 0.8921L46.7106 1.04193ZM47.4684 1.57922L47.6125 1.5375L47.6125 1.5375L47.4684 1.57922ZM47.1149 2.4316L47.1876 2.56278L47.1877 2.56273L47.1149 2.4316ZM45.2477 3.20857L45.2015 3.06586L45.0977 3.09947V3.20857H45.2477ZM44.2848 6.25851L44.3517 6.39275L44.3518 6.3927L44.2848 6.25851ZM42.4547 6.10389L42.5436 5.98308L42.5435 5.98297L42.4547 6.10389ZM40.0348 4.32769L40.1236 4.20677L40.0741 4.17047L40.0134 4.17922L40.0348 4.32769ZM28.7498 5.15493L28.7464 5.00497L28.5998 5.00833V5.15493H28.7498ZM28.7498 6.68181H28.5998V6.83186L28.7499 6.83181L28.7498 6.68181ZM33.9978 6.67988L33.9978 6.52988L33.9978 6.52988L33.9978 6.67988ZM42.9023 9.64863L42.9941 9.52993L42.9925 9.52871L42.9023 9.64863ZM43.1074 9.80711L43.1996 9.68876L43.1991 9.68842L43.1074 9.80711ZM47.7676 16.0479L47.6278 16.1023L47.6304 16.1091L47.6337 16.1156L47.7676 16.0479ZM47.7734 16.0595L47.9123 16.0017L47.9073 15.9919L47.7734 16.0595ZM47.7871 16.0924L47.9287 16.0421L47.9256 16.0347L47.7871 16.0924ZM47.83 16.2047L47.6905 16.2599L47.6907 16.2604L47.83 16.2047ZM47.8301 16.2049L47.97 16.1507L47.9693 16.1491L47.8301 16.2049ZM47.8301 16.2049L47.6902 16.2591L47.6908 16.2607L47.8301 16.2049ZM47.8302 16.2051L47.97 16.1509L47.9694 16.1494L47.8302 16.2051ZM47.8302 16.2052L47.6903 16.2593L47.6909 16.2609L47.8302 16.2052ZM47.8302 16.2053L47.9697 16.1501L47.9695 16.1496L47.8302 16.2053ZM47.8672 16.3011L47.7262 16.3525L47.7274 16.3555L47.8672 16.3011ZM48.166 17.0684V17.2184H48.3854L48.3058 17.014L48.166 17.0684ZM48.123 17.0684V16.9184H47.9205L47.9795 17.1121L48.123 17.0684ZM45.9319 15.5859V15.7359H46.1724L46.0666 15.5199L45.9319 15.5859ZM42.3791 11.1328L42.4736 11.0162L42.4323 10.9828H42.3791V11.1328ZM43.6113 4.93264L43.5448 4.7982L43.5448 4.7982L43.6113 4.93264ZM43.75 4.71037L43.6 4.71037V4.71037H43.75ZM43.3496 4.90945L43.4385 4.78866L43.4383 4.78846L43.3496 4.90945ZM42.0918 3.9875L42.0638 3.84014L41.7249 3.90455L42.0031 4.10848L42.0918 3.9875ZM43.75 3.62993L43.9 3.62994L43.9 3.439L43.7145 3.4842L43.75 3.62993ZM25.0906 2.73601L25.0911 2.88601L25.0912 2.88601L25.0906 2.73601ZM25.0908 2.73601L25.0903 2.58601L25.0902 2.58601L25.0908 2.73601ZM21.758 2.74278L21.7444 2.5934L21.758 2.89278V2.74278ZM21.7584 2.74274L21.772 2.89212L21.7584 2.59274V2.74274ZM8.33644 2.42383L8.34601 2.27414L8.30889 2.57128L8.33644 2.42383ZM40.7424 2.70799L40.7662 2.85609L40.7407 2.558L40.7424 2.70799ZM36.1897 2.72925L36.1896 2.87925H36.1897V2.72925ZM29.7502 2.72345L29.7503 2.57345H29.7502V2.72345ZM26.0607 2.73312L26.0612 2.88312L26.0614 2.88312L26.0607 2.73312ZM15.7715 4.836L15.7833 4.68646L15.6215 4.67368V4.836H15.7715ZM27.25 5.18003H27.4V5.02805L27.248 5.03004L27.25 5.18003ZM27.25 6.67984V6.82984H27.4V6.67984H27.25ZM15.7715 6.67984H15.6215V6.82984H15.7715V6.67984ZM42.1855 25.977L42.0374 26.0008L42.0578 26.127H42.1855V25.977ZM48.2499 25.977V26.127H48.3999V25.977H48.2499ZM48.2499 25.4822H48.3999V25.3322H48.2499V25.4822ZM43.7499 25.4822H43.5999V25.6322H43.7499V25.4822ZM43.7499 23.9978V23.8478H43.5999V23.9978H43.7499ZM47.2499 23.9978V24.1478H47.3999V23.9978H47.2499ZM46.5468 17.0707L46.6887 17.0221L46.654 16.9207H46.5468V17.0707ZM40.1113 9.64884V9.79884L40.1802 9.51556L40.1113 9.64884ZM3.74989 15.5863H3.59989V15.7363H3.74989V15.5863ZM11.2849 15.5863H11.4349V15.4363H11.2849V15.5863ZM11.2849 17.0707V17.2207H11.4349V17.0707H11.2849ZM3.74989 17.0707V16.9207H3.59989V17.0707H3.74989ZM3.74989 23.9978H3.59989V24.1478H3.74989V23.9978ZM4.74989 23.9978H4.89989V23.8478H4.74989V23.9978ZM4.74989 25.4822V25.6322H4.89989V25.4822H4.74989ZM1.74989 25.4822V25.3322H1.59989V25.4822H1.74989ZM1.74989 25.977H1.59989V26.127H1.74989V25.977ZM6.06433 25.977V26.127H6.19197L6.2124 26.001L6.06433 25.977ZM15.4354 25.977L15.2873 26.0008L15.3077 26.127H15.4354V25.977ZM32.8144 25.977V26.127H32.9421L32.9625 26.001L32.8144 25.977ZM48.9 24.0226V21.2761H48.6V24.0226H48.9ZM48.7914 24.1668L48.7918 24.1666L48.7082 23.8785L48.7078 23.8786L48.7914 24.1668ZM49.8996 25.2346C49.8996 24.5652 49.417 24.0054 48.7794 23.8757L48.7197 24.1697C49.2228 24.272 49.5996 24.7133 49.5996 25.2346H49.8996ZM49.8996 26.2222V25.2346H49.5996V26.2222H49.8996ZM48.7794 27.583C49.4169 27.4533 49.8996 26.8954 49.8996 26.2222H49.5996C49.5996 26.7473 49.2228 27.1867 48.7197 27.289L48.7794 27.583ZM48.8996 27.4611V27.436H48.5996V27.4611H48.8996ZM42.1851 27.6111H48.7496V27.3111H42.1851V27.6111ZM37.4995 31.5694C39.9369 31.5694 41.9581 29.7973 42.3331 27.4851L42.037 27.4371C41.6854 29.6051 39.7887 31.2694 37.4995 31.2694V31.5694ZM32.6678 27.485C33.0408 29.7973 35.0621 31.5694 37.4995 31.5694V31.2694C35.2103 31.2694 33.3137 29.6051 32.964 27.4372L32.6678 27.485ZM15.4349 27.6111H32.8159V27.3111H15.4349V27.6111ZM10.7494 31.5694C13.1868 31.5694 15.208 29.7973 15.583 27.4851L15.2868 27.4371C14.9352 29.6051 13.0386 31.2694 10.7494 31.2694V31.5694ZM5.91573 27.485C6.28872 29.7954 8.31201 31.5694 10.7494 31.5694V31.2694C8.46011 31.2694 6.56156 29.6031 6.21189 27.4372L5.91573 27.485ZM2.24936 27.6111H6.06381V27.3111H2.24936V27.6111ZM1.5017 27.613L2.24975 27.6111L2.24897 27.3111L1.50092 27.313L1.5017 27.613ZM0.0993591 26.2241C0.0993591 26.9906 0.728398 27.613 1.50131 27.613V27.313C0.89142 27.313 0.399359 26.8222 0.399359 26.2241H0.0993591ZM0.0993591 25.2365V26.2241H0.399359V25.2365H0.0993591ZM1.50131 23.8476C0.730654 23.8476 0.0993591 24.4678 0.0993591 25.2365H0.399359C0.399359 24.6367 0.893064 24.1476 1.50131 24.1476V23.8476ZM2.24936 23.8476H1.50131V24.1476H2.24936V23.8476ZM2.09936 12.8667V23.9976H2.39936V12.8667H2.09936ZM8.50136 6.52986C4.97275 6.52986 2.09936 9.37102 2.09936 12.8667H2.39936C2.39936 9.53966 5.13547 6.82986 8.50136 6.82986V6.52986ZM14.2708 6.52599L8.50126 6.52986L8.50146 6.82986L14.271 6.82599L14.2708 6.52599ZM14.1209 4.70261V6.67599H14.4209V4.70261H14.1209ZM1.36285 1.61822C1.77344 2.02454 2.40935 2.39015 3.2145 2.71979C4.02205 3.05042 5.01112 3.34935 6.1381 3.61691C8.3922 4.15207 11.2102 4.56459 14.2568 4.85195L14.2849 4.55328C11.246 4.26664 8.44304 3.8558 6.2074 3.32502C5.08951 3.05962 4.11653 2.76494 3.32817 2.44216C2.53741 2.11841 1.94355 1.77082 1.57387 1.40498L1.36285 1.61822ZM1.201 0.573648C1.01763 0.92028 1.08351 1.34414 1.3633 1.61867L1.57341 1.40454C1.38837 1.22297 1.34486 0.943266 1.46618 0.71393L1.201 0.573648ZM2.1569 0.109576C1.76821 0.0400617 1.38395 0.230144 1.2012 0.573277L1.46599 0.714301C1.58794 0.485326 1.84433 0.358435 2.10409 0.40489L2.1569 0.109576ZM21.7555 1.10646C14.8424 1.10646 7.11773 0.988133 2.15665 0.109532L2.10434 0.404935C7.09626 1.289 14.8486 1.40646 21.7555 1.40646V1.10646ZM26.0537 1.0968C24.6672 1.1026 23.224 1.10646 21.7555 1.10646V1.40646C23.2245 1.40646 24.6681 1.4026 26.055 1.3968L26.0537 1.0968ZM27.1003 1.09335C26.7554 1.09454 26.4065 1.09574 26.0539 1.0968L26.0548 1.3968C26.4074 1.39574 26.7564 1.39454 27.1013 1.39335L27.1003 1.09335ZM27.1003 1.09335L27.1002 1.09335L27.1013 1.39335L27.1014 1.39335L27.1003 1.09335ZM27.1004 1.09335L27.1003 1.09335L27.1014 1.39335L27.1015 1.39335L27.1004 1.09335ZM27.1005 1.09335L27.1004 1.09335L27.1015 1.39335L27.1016 1.39335L27.1005 1.09335ZM27.1009 1.09335L27.1005 1.09335L27.1016 1.39335L27.1019 1.39334L27.1009 1.09335ZM27.1012 1.09335L27.1009 1.09335L27.1019 1.39335L27.1021 1.39334L27.1012 1.09335ZM27.1011 1.09335L27.1011 1.09335L27.1022 1.39334L27.1023 1.39334L27.1011 1.09335ZM29.7496 1.08714C28.9002 1.08714 28.0148 1.09019 27.1012 1.09335L27.1023 1.39334C28.016 1.39019 28.9008 1.38714 29.7496 1.38714V1.08714ZM36.1872 1.08907L29.7497 1.08714L29.7496 1.38714L36.1871 1.38907L36.1872 1.08907ZM36.1891 1.08907H36.1871V1.38907H36.1891V1.08907ZM46.7034 0.8921C43.2265 1.06008 40.5458 1.08907 36.1891 1.08907V1.38907C40.5474 1.38907 43.2338 1.36007 46.7178 1.19175L46.7034 0.8921ZM47.6125 1.5375C47.4968 1.138 47.1144 0.875881 46.7047 0.892042L46.7165 1.19181C46.9942 1.18086 47.2486 1.35943 47.3243 1.62094L47.6125 1.5375ZM47.1877 2.56273C47.5511 2.36087 47.7278 1.9357 47.6125 1.5375L47.3243 1.62094C47.4004 1.88378 47.2841 2.16603 47.042 2.30047L47.1877 2.56273ZM45.2939 3.35128C46.0401 3.10968 46.6747 2.8472 47.1876 2.56278L47.0421 2.30041C46.5512 2.57264 45.9358 2.82812 45.2015 3.06586L45.2939 3.35128ZM45.3977 4.71036V3.20857H45.0977V4.71036H45.3977ZM44.3518 6.3927C45.0056 6.06606 45.3977 5.43658 45.3977 4.71036H45.0977C45.0977 5.32166 44.771 5.84793 44.2177 6.12433L44.3518 6.3927ZM43.4918 6.59986C43.7835 6.59986 44.0759 6.53027 44.3517 6.39275L44.2179 6.12427C43.982 6.24188 43.7353 6.29986 43.4918 6.29986V6.59986ZM42.3658 6.2247C42.7038 6.47344 43.0962 6.59986 43.4918 6.59986V6.29986C43.161 6.29986 42.8307 6.19434 42.5436 5.98308L42.3658 6.2247ZM39.9461 4.44861L42.366 6.22481L42.5435 5.98297L40.1236 4.20677L39.9461 4.44861ZM28.7533 5.30489C33.1439 5.2043 36.9665 4.92182 40.0562 4.47615L40.0134 4.17922C36.9392 4.62266 33.1292 4.90456 28.7464 5.00497L28.7533 5.30489ZM28.8998 6.68181V5.15493H28.5998V6.68181H28.8998ZM33.9978 6.52988L28.7498 6.53181L28.7499 6.83181L33.9979 6.82988L33.9978 6.52988ZM42.9925 9.52871C40.4908 7.64863 37.3755 6.52988 33.9978 6.52988V6.82988C37.3082 6.82988 40.3607 7.92611 42.8122 9.76854L42.9925 9.52871ZM43.1991 9.68842L42.9941 9.52994L42.8106 9.76731L43.0157 9.9258L43.1991 9.68842ZM47.9074 15.9935C46.9344 13.4919 45.2927 11.3188 43.1996 9.68876L43.0152 9.92546C45.0666 11.5229 46.6749 13.6522 47.6278 16.1023L47.9074 15.9935ZM47.9073 15.9919L47.9014 15.9803L47.6337 16.1156L47.6395 16.1272L47.9073 15.9919ZM47.9256 16.0347L47.9119 16.0019L47.6349 16.1171L47.6486 16.15L47.9256 16.0347ZM47.9695 16.1495C47.9547 16.1122 47.941 16.0775 47.9285 16.0422L47.6457 16.1425C47.6604 16.1838 47.6761 16.2234 47.6905 16.2599L47.9695 16.1495ZM47.9693 16.1491L47.9693 16.149L47.6907 16.2604L47.6908 16.2606L47.9693 16.1491ZM47.97 16.1508L47.9699 16.1507L47.6902 16.259L47.6902 16.2591L47.97 16.1508ZM47.9694 16.1494L47.9694 16.1492L47.6908 16.2607L47.6909 16.2608L47.9694 16.1494ZM47.9701 16.151L47.97 16.1509L47.6903 16.2592L47.6903 16.2593L47.9701 16.151ZM47.9695 16.1496L47.9695 16.1495L47.6909 16.2609L47.691 16.261L47.9695 16.1496ZM48.0081 16.2497C47.9955 16.2153 47.9822 16.1817 47.9697 16.1501L47.6908 16.2605C47.7035 16.2927 47.7153 16.3226 47.7263 16.3525L48.0081 16.2497ZM48.3058 17.014L48.0069 16.2467L47.7274 16.3555L48.0262 17.1229L48.3058 17.014ZM48.123 17.2184H48.166V16.9184H48.123V17.2184ZM48.9 21.2761C48.9 19.7997 48.677 18.3721 48.2665 17.0247L47.9795 17.1121C48.3816 18.4319 48.6 19.8301 48.6 21.2761H48.9ZM45.9316 15.4359H35.0001V15.7359H45.9316V15.4359ZM45.9319 15.4359H45.9316V15.7359H45.9319V15.4359ZM42.2847 11.2493C43.7698 12.4533 44.967 13.9572 45.7972 15.6519L46.0666 15.5199C45.2171 13.7859 43.9924 12.2475 42.4736 11.0162L42.2847 11.2493ZM35.0001 11.2828H42.3791V10.9828H35.0001V11.2828ZM34.9001 11.3802C34.9001 11.3311 34.9467 11.2828 35.0001 11.2828V10.9828C34.784 10.9828 34.6001 11.1625 34.6001 11.3802H34.9001ZM34.9001 15.3385V11.3802H34.6001V15.3385H34.9001ZM35.0001 15.4359C34.9467 15.4359 34.9001 15.3875 34.9001 15.3385H34.6001C34.6001 15.5562 34.784 15.7359 35.0001 15.7359V15.4359ZM43.6778 5.06708C43.7448 5.03394 43.8029 4.98666 43.8432 4.92164C43.8836 4.85662 43.9 4.78402 43.9 4.71037H43.6C43.6 4.73916 43.5939 4.75449 43.5884 4.7634C43.5828 4.77232 43.5716 4.78496 43.5448 4.7982L43.6778 5.06708ZM43.2606 5.03023C43.3198 5.07378 43.3873 5.10423 43.4634 5.11103C43.5396 5.11785 43.6116 5.09985 43.6778 5.06708L43.5448 4.7982C43.5173 4.81181 43.5004 4.81315 43.4902 4.81223C43.4798 4.8113 43.4634 4.80696 43.4385 4.78866L43.2606 5.03023ZM42.0031 4.10848L43.2609 5.03043L43.4383 4.78846L42.1805 3.86652L42.0031 4.10848ZM43.7145 3.4842C43.2015 3.60919 42.6513 3.72849 42.0638 3.84014L42.1198 4.13486C42.712 4.02231 43.2673 3.90194 43.7855 3.77567L43.7145 3.4842ZM43.9 4.71037L43.9 3.62994L43.6 3.62993L43.6 4.71037L43.9 4.71037ZM25.0912 2.88601L25.0914 2.88601L25.0902 2.58601L25.09 2.58601L25.0912 2.88601ZM21.758 2.89278C22.8894 2.89278 24.0047 2.88935 25.0911 2.88601L25.0901 2.58601C24.0037 2.58935 22.8889 2.59278 21.758 2.59278V2.89278ZM21.7449 2.59335L21.7444 2.5934L21.7716 2.89217L21.772 2.89212L21.7449 2.59335ZM8.32687 2.57353C12.5331 2.84251 17.3185 2.89274 21.7584 2.89274V2.59274C17.3194 2.59274 12.5421 2.54247 8.34601 2.27414L8.32687 2.57353ZM25.0004 3.56108C18.1812 3.56108 12.3878 3.0281 8.36398 2.27638L8.30889 2.57128C12.3551 3.32719 18.1676 3.86108 25.0004 3.86108V3.56108ZM40.7186 2.55989C36.7469 3.19795 31.2688 3.56108 25.0004 3.56108V3.86108C31.278 3.86108 36.7732 3.49756 40.7662 2.85609L40.7186 2.55989ZM36.1916 2.87925C37.9185 2.87925 39.3859 2.87345 40.7441 2.85798L40.7407 2.558C39.3841 2.57345 37.9179 2.57925 36.1916 2.57925V2.87925ZM36.1897 2.87925H36.1916V2.57925H36.1897V2.87925ZM29.7501 2.87345L36.1896 2.87925L36.1898 2.57925L29.7503 2.57345L29.7501 2.87345ZM26.0614 2.88312C27.3464 2.87732 28.5826 2.87345 29.7502 2.87345V2.57345C28.5819 2.57345 27.3453 2.57732 26.0601 2.58312L26.0614 2.88312ZM25.0912 2.88601L26.0612 2.88312L26.0603 2.58312L25.0903 2.58601L25.0912 2.88601ZM25 5.04549C21.9608 5.04549 18.789 4.92387 15.7833 4.68646L15.7597 4.98553C18.7735 5.22358 21.9532 5.34549 25 5.34549V5.04549ZM27.248 5.03004C26.5122 5.0397 25.7629 5.04549 25 5.04549V5.34549C25.7644 5.34549 26.5151 5.33969 27.252 5.33002L27.248 5.03004ZM27.4 6.67984V5.18003H27.1V6.67984H27.4ZM15.7715 6.82984H27.25V6.52984H15.7715V6.82984ZM15.6215 4.836V6.67984H15.9215V4.836H15.6215ZM10.75 29.7853C9.03839 29.7853 7.64999 28.4091 7.64999 26.7191H7.34999C7.34999 28.5777 8.87568 30.0853 10.75 30.0853V29.7853ZM13.85 26.7191C13.85 28.4091 12.4616 29.7853 10.75 29.7853V30.0853C12.6243 30.0853 14.15 28.5777 14.15 26.7191H13.85ZM10.75 23.653C12.4616 23.653 13.85 25.0292 13.85 26.7191H14.15C14.15 24.8606 12.6243 23.353 10.75 23.353V23.653ZM7.64999 26.7191C7.64999 25.0292 9.03839 23.653 10.75 23.653V23.353C8.87568 23.353 7.34999 24.8606 7.34999 26.7191H7.64999ZM34.1 26.7191C34.1 28.5777 35.6257 30.0853 37.5 30.0853V29.7853C35.7884 29.7853 34.4 28.4091 34.4 26.7191H34.1ZM37.5 23.353C35.6257 23.353 34.1 24.8606 34.1 26.7191H34.4C34.4 25.0292 35.7884 23.653 37.5 23.653V23.353ZM40.9 26.7191C40.9 24.8606 39.3743 23.353 37.5 23.353V23.653C39.2116 23.653 40.6 25.0292 40.6 26.7191H40.9ZM37.5 30.0853C39.3743 30.0853 40.9 28.5777 40.9 26.7191H40.6C40.6 28.4091 39.2116 29.7853 37.5 29.7853V30.0853ZM42.3336 25.9531C41.9606 23.6407 39.9373 21.8686 37.5 21.8686V22.1686C39.7893 22.1686 41.6878 23.8331 42.0374 26.0008L42.3336 25.9531ZM48.2499 25.827H42.1855V26.127H48.2499V25.827ZM48.0999 25.4822V25.977H48.3999V25.4822H48.0999ZM43.7499 25.6322H48.2499V25.3322H43.7499V25.6322ZM43.5999 23.9978V25.4822H43.8999V23.9978H43.5999ZM47.2499 23.8478H43.7499V24.1478H47.2499V23.8478ZM47.0999 21.2784V23.9978H47.3999V21.2784H47.0999ZM46.4049 17.1193C46.8529 18.4263 47.0999 19.8227 47.0999 21.2784H47.3999C47.3999 19.7884 47.147 18.3592 46.6887 17.0221L46.4049 17.1193ZM34.9998 17.2207H46.5468V16.9207H34.9998V17.2207ZM33.0998 15.3389C33.0998 16.3781 33.9536 17.2207 34.9998 17.2207V16.9207C34.1163 16.9207 33.3998 16.2094 33.3998 15.3389H33.0998ZM33.0998 11.3806V15.3389H33.3998V11.3806H33.0998ZM34.9998 9.49884C33.9536 9.49884 33.0998 10.3415 33.0998 11.3806H33.3998C33.3998 10.5101 34.1163 9.79884 34.9998 9.79884V9.49884ZM40.1113 9.49884H34.9998V9.79884H40.1113V9.49884ZM33.9978 8.31446C36.1762 8.31446 38.2328 8.84759 40.0425 9.78211L40.1802 9.51556C38.3293 8.55978 36.2257 8.01446 33.9978 8.01446V8.31446ZM8.50183 8.31446H33.9978V8.01446H8.50183V8.31446ZM3.89989 12.8669C3.89989 10.3593 5.96213 8.31446 8.50183 8.31446V8.01446C5.79934 8.01446 3.59989 10.1908 3.59989 12.8669H3.89989ZM3.89989 15.5863V12.8669H3.59989V15.5863H3.89989ZM11.2849 15.4363H3.74989V15.7363H11.2849V15.4363ZM11.4349 17.0707V15.5863H11.1349V17.0707H11.4349ZM3.74989 17.2207H11.2849V16.9207H3.74989V17.2207ZM3.89989 23.9978V17.0707H3.59989V23.9978H3.89989ZM4.74989 23.8478H3.74989V24.1478H4.74989V23.8478ZM4.89989 25.4822V23.9978H4.59989V25.4822H4.89989ZM1.74989 25.6322H4.74989V25.3322H1.74989V25.6322ZM1.89989 25.977V25.4822H1.59989V25.977H1.89989ZM6.06433 25.827H1.74989V26.127H6.06433V25.827ZM10.7499 21.8686C8.31249 21.8686 6.29126 23.6408 5.91627 25.9529L6.2124 26.001C6.56401 23.833 8.46068 22.1686 10.7499 22.1686V21.8686ZM15.5835 25.9531C15.2105 23.6407 13.1872 21.8686 10.7499 21.8686V22.1686C13.0392 22.1686 14.9377 23.8331 15.2873 26.0008L15.5835 25.9531ZM32.8144 25.827H15.4354V26.127H32.8144V25.827ZM37.5 21.8686C35.0626 21.8686 33.0414 23.6408 32.6664 25.9529L32.9625 26.001C33.3141 23.833 35.2108 22.1686 37.5 22.1686V21.8686Z" fill="#424649"/>
<path fill-rule="evenodd" clip-rule="evenodd" d="M22.75 11.3802V15.3385C22.75 16.2933 21.9648 17.0703 21 17.0703H16C15.0351 17.0703 14.25 16.2933 14.25 15.3385V11.3802C14.25 10.4254 15.0351 9.64844 16 9.64844H21C21.9648 9.64844 22.75 10.4254 22.75 11.3802ZM15.75 11.3802V15.3385C15.75 15.4738 15.8652 15.5859 16 15.5859H21C21.1348 15.5859 21.25 15.4719 21.25 15.3385V11.3802C21.25 11.2468 21.1348 11.1328 21 11.1328H16C15.8652 11.1328 15.75 11.2468 15.75 11.3802Z" fill="white"/>
<path d="M22.9 15.3385V11.3802H22.6V15.3385H22.9ZM21 17.2203C22.0462 17.2203 22.9 16.3777 22.9 15.3385H22.6C22.6 16.209 21.8835 16.9203 21 16.9203V17.2203ZM16 17.2203H21V16.9203H16V17.2203ZM14.1 15.3385C14.1 16.3777 14.9538 17.2203 16 17.2203V16.9203C15.1165 16.9203 14.4 16.209 14.4 15.3385H14.1ZM14.1 11.3802V15.3385H14.4V11.3802H14.1ZM16 9.49844C14.9538 9.49844 14.1 10.3411 14.1 11.3802H14.4C14.4 10.5097 15.1165 9.79844 16 9.79844V9.49844ZM21 9.49844H16V9.79844H21V9.49844ZM22.9 11.3802C22.9 10.3411 22.0462 9.49844 21 9.49844V9.79844C21.8835 9.79844 22.6 10.5097 22.6 11.3802H22.9ZM15.9 15.3385V11.3802H15.6V15.3385H15.9ZM16 15.4359C15.9458 15.4359 15.9 15.3888 15.9 15.3385H15.6C15.6 15.5589 15.7846 15.7359 16 15.7359V15.4359ZM21 15.4359H16V15.7359H21V15.4359ZM21.1 15.3385C21.1 15.3876 21.0534 15.4359 21 15.4359V15.7359C21.2161 15.7359 21.4 15.5562 21.4 15.3385H21.1ZM21.1 11.3802V15.3385H21.4V11.3802H21.1ZM21 11.2828C21.0534 11.2828 21.1 11.3312 21.1 11.3802H21.4C21.4 11.1625 21.2161 10.9828 21 10.9828V11.2828ZM16 11.2828H21V10.9828H16V11.2828ZM15.9 11.3802C15.9 11.3312 15.9466 11.2828 16 11.2828V10.9828C15.7839 10.9828 15.6 11.1625 15.6 11.3802H15.9Z" fill="#424649"/>
<path fill-rule="evenodd" clip-rule="evenodd" d="M25.5 9.64844H30.5C31.4648 9.64844 32.25 10.4254 32.25 11.3802V15.3385C32.25 16.2933 31.4648 17.0703 30.5 17.0703H25.5C24.5351 17.0703 23.75 16.2933 23.75 15.3385V11.3802C23.75 10.4254 24.5351 9.64844 25.5 9.64844ZM30.5 15.5859C30.6348 15.5859 30.75 15.4719 30.75 15.3385V11.3802C30.75 11.2468 30.6348 11.1328 30.5 11.1328H25.5C25.3652 11.1328 25.25 11.2468 25.25 11.3802V15.3385C25.25 15.4719 25.3652 15.5859 25.5 15.5859H30.5Z" fill="white"/>
<path d="M30.5 9.49844H25.5V9.79844H30.5V9.49844ZM32.4 11.3802C32.4 10.3411 31.5462 9.49844 30.5 9.49844V9.79844C31.3835 9.79844 32.1 10.5097 32.1 11.3802H32.4ZM32.4 15.3385V11.3802H32.1V15.3385H32.4ZM30.5 17.2203C31.5462 17.2203 32.4 16.3777 32.4 15.3385H32.1C32.1 16.209 31.3835 16.9203 30.5 16.9203V17.2203ZM25.5 17.2203H30.5V16.9203H25.5V17.2203ZM23.6 15.3385C23.6 16.3777 24.4538 17.2203 25.5 17.2203V16.9203C24.6165 16.9203 23.9 16.209 23.9 15.3385H23.6ZM23.6 11.3802V15.3385H23.9V11.3802H23.6ZM25.5 9.49844C24.4538 9.49844 23.6 10.3411 23.6 11.3802H23.9C23.9 10.5097 24.6165 9.79844 25.5 9.79844V9.49844ZM30.6 15.3385C30.6 15.3876 30.5534 15.4359 30.5 15.4359V15.7359C30.7161 15.7359 30.9 15.5562 30.9 15.3385H30.6ZM30.6 11.3802V15.3385H30.9V11.3802H30.6ZM30.5 11.2828C30.5534 11.2828 30.6 11.3312 30.6 11.3802H30.9C30.9 11.1625 30.7161 10.9828 30.5 10.9828V11.2828ZM25.5 11.2828H30.5V10.9828H25.5V11.2828ZM25.4 11.3802C25.4 11.3312 25.4466 11.2828 25.5 11.2828V10.9828C25.2839 10.9828 25.1 11.1625 25.1 11.3802H25.4ZM25.4 15.3385V11.3802H25.1V15.3385H25.4ZM25.5 15.4359C25.4466 15.4359 25.4 15.3876 25.4 15.3385H25.1C25.1 15.5562 25.2839 15.7359 25.5 15.7359V15.4359ZM30.5 15.4359H25.5V15.7359H30.5V15.4359Z" fill="#424649"/>
<path fill-rule="evenodd" clip-rule="evenodd" d="M35.5 26.7188C35.5 25.6268 36.3965 24.7396 37.5 24.7396C38.6035 24.7396 39.5 25.6287 39.5 26.7188C39.5 27.8108 38.6035 28.698 37.5 28.698C36.3965 28.698 35.5 27.8108 35.5 26.7188ZM37 26.7188C37 26.9913 37.2246 27.2136 37.5 27.2136C37.7754 27.2136 38 26.9913 38 26.7188C38 26.4463 37.7754 26.224 37.5 26.224C37.2246 26.224 37 26.4463 37 26.7188Z" fill="white"/>
<path d="M37.5 24.5896C36.3151 24.5896 35.35 25.5425 35.35 26.7188H35.65C35.65 25.7111 36.4779 24.8896 37.5 24.8896V24.5896ZM39.65 26.7188C39.65 25.5445 38.685 24.5896 37.5 24.5896V24.8896C38.522 24.8896 39.35 25.7129 39.35 26.7188H39.65ZM37.5 28.848C38.6849 28.848 39.65 27.8951 39.65 26.7188H39.35C39.35 27.7265 38.5221 28.548 37.5 28.548V28.848ZM35.35 26.7188C35.35 27.8951 36.3151 28.848 37.5 28.848V28.548C36.4779 28.548 35.65 27.7265 35.65 26.7188H35.35ZM37.5 27.0636C37.306 27.0636 37.15 26.907 37.15 26.7188H36.85C36.85 27.0756 37.1433 27.3636 37.5 27.3636V27.0636ZM37.85 26.7188C37.85 26.907 37.694 27.0636 37.5 27.0636V27.3636C37.8567 27.3636 38.15 27.0756 38.15 26.7188H37.85ZM37.5 26.374C37.694 26.374 37.85 26.5306 37.85 26.7188H38.15C38.15 26.3619 37.8567 26.074 37.5 26.074V26.374ZM37.15 26.7188C37.15 26.5306 37.306 26.374 37.5 26.374V26.074C37.1433 26.074 36.85 26.3619 36.85 26.7188H37.15Z" fill="#424649"/>
<path fill-rule="evenodd" clip-rule="evenodd" d="M8.75 26.7188C8.75 25.6268 9.6465 24.7396 10.75 24.7396C11.8535 24.7396 12.75 25.6287 12.75 26.7188C12.75 27.8108 11.8535 28.698 10.75 28.698C9.6465 28.698 8.75 27.8089 8.75 26.7188ZM10.25 26.7188C10.25 26.9913 10.4746 27.2136 10.75 27.2136C11.0254 27.2136 11.25 26.9913 11.25 26.7188C11.25 26.4463 11.0254 26.224 10.75 26.224C10.4746 26.224 10.25 26.4463 10.25 26.7188Z" fill="white"/>
<path d="M10.75 24.5896C9.56514 24.5896 8.6 25.5425 8.6 26.7188H8.9C8.9 25.7111 9.72786 24.8896 10.75 24.8896V24.5896ZM12.9 26.7188C12.9 25.5445 11.935 24.5896 10.75 24.5896V24.8896C11.772 24.8896 12.6 25.7129 12.6 26.7188H12.9ZM10.75 28.848C11.9349 28.848 12.9 27.8951 12.9 26.7188H12.6C12.6 27.7265 11.7721 28.548 10.75 28.548V28.848ZM8.6 26.7188C8.6 27.8931 9.56505 28.848 10.75 28.848V28.548C9.72795 28.548 8.9 27.7246 8.9 26.7188H8.6ZM10.75 27.0636C10.556 27.0636 10.4 26.907 10.4 26.7188H10.1C10.1 27.0756 10.3933 27.3636 10.75 27.3636V27.0636ZM11.1 26.7188C11.1 26.907 10.944 27.0636 10.75 27.0636V27.3636C11.1067 27.3636 11.4 27.0756 11.4 26.7188H11.1ZM10.75 26.374C10.944 26.374 11.1 26.5306 11.1 26.7188H11.4C11.4 26.3619 11.1067 26.074 10.75 26.074V26.374ZM10.4 26.7188C10.4 26.5306 10.556 26.374 10.75 26.374V26.074C10.3933 26.074 10.1 26.3619 10.1 26.7188H10.4Z" fill="#424649"/>
<path d="M16.25 23.9974H31.75V25.4818H16.25V23.9974Z" fill="white" stroke="#424649" stroke-width="0.3"/>
</svg>
